<!-- icon666.com - MILLIONS vector ICONS FREE --><svg id="Icons" viewBox="0 0 64 64" xmlns="http://www.w3.org/2000/svg"><path d="m33.9 54.357a24.521 24.521 0 0 1 -18.143-45.321l1.234-.592 20.182.012 1.261.677a24.511 24.511 0 0 1 13.083 21.692q0 .4-.012.789v20.172z" fill="#edf0f5"></path><path d="m50.309 31.353a10.137 10.137 0 0 0 -9.357-6.237h-27.746a10.134 10.134 0 0 0 -10.133 10.134v.891a24.536 24.536 0 0 0 30.827 18.216l17.608-2.571v-18.236z" fill="#5ecef4"></path><path d="m50.309 31.353a10.137 10.137 0 0 0 -9.357-6.237h-2.786a10.137 10.137 0 0 1 9.357 6.237l1.2 2.2v18.233l-17.611 2.571a24.446 24.446 0 0 1 -5.362.928c.417.021.831.055 1.253.055a24.508 24.508 0 0 0 6.894-.983l17.608-2.571v-18.236z" fill="#0fa9dd"></path><circle cx="27.079" cy="13.661" fill="#fed2a4" r="11.355"></circle><path d="m27.079 2.305c-.293 0-.58.022-.868.044a11.344 11.344 0 0 1 0 22.623c.288.022.575.044.868.044a11.356 11.356 0 0 0 0-22.711z" fill="#d39c76"></path><circle cx="46.992" cy="46.115" fill="#ff7037" r="15.472"></circle><circle cx="46.992" cy="46.115" fill="#ffda44" r="10.815"></circle><path d="m54.029 37.912a10.806 10.806 0 0 1 -15.238 15.24 10.808 10.808 0 1 0 15.238-15.24z" fill="#e8ba25"></path><path d="m19.635 25.116h14.888a0 0 0 0 1 0 0v.013a7.444 7.444 0 0 1 -7.444 7.444 7.444 7.444 0 0 1 -7.444-7.444v-.013a0 0 0 0 1 0 0z" fill="#fed2a4"></path><path d="m12.206 50.344q.965.732 2 1.368v-16.5h-2z" fill="#0fa9dd"></path><g fill="#e55420"><path d="m47.992 34.351v-3.658c-.33-.021-.658-.05-.993-.05h-.013c-.335 0-.663.029-.994.05v3.658a11.821 11.821 0 0 0 -10.764 10.763h-3.657c-.021.331-.05.66-.05 1v.007c0 .336.029.665.05 1h3.657a11.822 11.822 0 0 0 10.764 10.757v3.658c.333.021.663.051 1 .051s.668-.03 1-.051v-3.658a11.823 11.823 0 0 0 10.765-10.764h3.657c.021-.332.051-.662.051-1s-.03-.668-.051-1h-3.657a11.822 11.822 0 0 0 -10.765-10.763zm8.765 12.763a9.832 9.832 0 0 1 -8.765 8.764v-2.157h-2v2.157a9.832 9.832 0 0 1 -8.764-8.764h2.159v-2h-2.159a9.831 9.831 0 0 1 8.764-8.763v2.157h2v-2.157a9.832 9.832 0 0 1 8.765 8.763h-2.157v2z"></path><circle cx="46.992" cy="46.115" r="2.068"></circle></g></svg>