<svg width="78" height="78" fill="none" xmlns="http://www.w3.org/2000/svg"><path d="M57.773 21.666c1.477 0 2.892 1.404 2.889 2.889v12.278c-.004 1.485-.2 2.851 1.278 2.851.816 0 .933-.416 1.533-.943 1.238-1.088 6.979-2.63 8.75-2.63 3.877 0 2.89 4.045 2.882 7.944-.01 3.9-3.16 7.06-7.037 7.06a6.957 6.957 0 01-4.619-1.746c-.64-.565-.668-.943-1.53-.943-1.476 0-1.254 1.366-1.257 2.851v7.945c0 2.166-2.167 4.333-4.333 4.333H45.974a2.675 2.675 0 01-2.668-2.69v-5.977c.001-.651 1.763 2.657 2.19 2.167 1.085-1.242.496-1.47.5-3.25.01-3.9-3.127-7.06-7.005-7.06-3.877 0-7.027 3.16-7.036 7.06-.004 1.78-1.98 1.286-.901 2.528.426.49 3.561-2.096 3.56-1.445v5.977a2.69 2.69 0 01-2.681 2.69H21.666c-2.166 0-4.319-1.444-4.319-4.333v-8.107c.003-1.485.253-2.69-1.224-2.69-.86 0-1.757.38-2.4.944-1.238 1.087-2.058 1.746-3.828 1.746-3.877 0-7.013-3.16-7.005-7.06.009-3.9-.99-8.667 2.888-8.667 1.77 0 7.535 2.265 8.768 3.353.597.527.78.943 1.596.943 1.478 0 1.191-1.407 1.237-2.69l-.046-12.44c.004-1.484 1.412-2.888 2.889-2.888h37.551z" fill="#578DD9"/><path d="M55.61 15.889c2.89 0 5.056 2.166 5.056 5.055v10.111c-.003 1.486-.199 2.852 1.278 2.852.816 0 .934-.417 1.534-.944a6.988 6.988 0 014.627-1.746c3.878 0 7.015 3.161 7.006 7.06-.009 3.9-3.16 7.06-7.038 7.06a6.958 6.958 0 01-4.619-1.745c-.64-.565-.669-.944-1.53-.944-1.477 0-1.254 1.366-1.258 2.852v7.222c0 2.889-2.166 5.056-5.055 5.056h-9.633a2.675 2.675 0 01-2.67-2.69l.001-.212c.002-.651.318-.941.746-1.432 1.084-1.242 2.163-2.553 2.167-4.333.009-3.9-3.344-7.222-7.222-7.222-3.878 0-7.214 3.322-7.222 7.222-.004 1.78 1.088 3.091 2.166 4.333.426.49.673.78.672 1.432v.212a2.69 2.69 0 01-2.681 2.69h-9.546c-2.89 0-5.056-2.167-5.056-5.056l.014-7.384c.003-1.486.253-2.69-1.224-2.69-.86 0-1.758.379-2.401.944-1.237 1.087-2.057 1.746-3.828 1.746-3.878 0-7.014-3.161-7.005-7.06.008-3.9 3.16-7.06 7.037-7.06 1.77 0 3.386.658 4.62 1.745.597.527.78.944 1.596.944 1.478 0 1.191-1.407 1.237-2.69l-.046-10.273c0-2.889 2.167-5.055 5.056-5.055H55.61z" fill="#8CC6FF"/><path fill-rule="evenodd" clip-rule="evenodd" d="M38.281 19.943c-2.178-.904-4.595-1.166-6.953-1.166H24.66c-2.068 0-3.747 1.449-3.752 3.235v9.72c.03 12.02 36.986-3.655 17.373-11.79zM7.535 26.56c.781-.78.94-1.889.354-2.475-.586-.585-1.694-.427-2.475.354-.781.78-.94 1.889-.354 2.475.586.585 1.694.427 2.475-.354z" fill="#BFE4FF"/><path d="M39 36.11c4.333 0 7.222-2.166 7.222-4.333H31.778c0 2.167 2.889 4.334 7.222 4.334z" fill="#fff"/><path d="M46.222 31.954c-.722 2.712-3.611 4.157-7.222 4.157s-6.5-1.445-7.222-4.334m2.889-5.675c-.323-.722-1.445-1.548-2.89-1.548-1.444 0-2.548.823-2.888 1.548m20.222-.103c-.323-.722-1.444-1.443-2.889-1.443-1.444 0-2.549.719-2.889 1.444" stroke="#578DD9" stroke-width="2.5" stroke-linecap="round"/></svg>