<svg width="40" height="40" fill="none" xmlns="http://www.w3.org/2000/svg"><path d="M34.333 32.666a5 5 0 00-5-5h-4a5 5 0 00-5 5 1 1 0 001 1h12a1 1 0 001-1z" fill="#FFDA72"/><path d="M35.667 24.333a4 4 0 01-4 4h-8A6.667 6.667 0 0117 21.666V17a9.333 9.333 0 1118.667 0v7.333z" fill="#F9763C"/><path d="M21.667 16.333a4 4 0 014-4h8.666V23a6 6 0 01-6 6h-.666a6 6 0 01-6-6v-6.667z" fill="#FFBB86"/><path d="M30.333 24.333h-4a2 2 0 004 0z" fill="#fff"/><path d="M30.333 24.333a2 2 0 01-4 0" stroke="#F8814D" stroke-width="1.333" stroke-linecap="round"/><path d="M17.71 13.227c-.18-.638.218-1.295.887-1.466l10.005-2.557c3.35-.855 6.791 1.04 7.688 4.233.18.64-.218 1.296-.887 1.467L25.398 17.46c-3.349.856-6.79-1.04-7.688-4.233z" fill="#F9763C"/><path d="M35.625 13.855c.173.576-.21 1.168-.858 1.322l-9.67 2.304c-3.236.771-6.563-.937-7.43-3.815" stroke="#FF986B" stroke-width="1.333" stroke-linecap="round"/><path d="M20.333 32.666a5 5 0 00-5-5h-4a5 5 0 00-5 5 1 1 0 001 1h12a1 1 0 001-1z" fill="#5FCFFF"/><path d="M19 17a4 4 0 00-4-4H9a2.667 2.667 0 00-2.667 2.667V23a6 6 0 006 6H13a6 6 0 006-6v-6z" fill="#FFBB86"/><path d="M16.333 20.333c-.194-.389-.717-.667-1.333-.667s-1.14.278-1.333.667m-2.667 0c-.194-.389-.718-.667-1.333-.667-.616 0-1.14.278-1.334.667H11z" stroke="#C4814F" stroke-width="1.333" stroke-linecap="round"/><path d="M9.667 24.333H15a2 2 0 01-2 2h-1.333a2 2 0 01-2-2z" fill="#fff"/><path d="M9.667 24.333a2 2 0 002 2H13a2 2 0 002-2" stroke="#C4814F" stroke-width="1.333" stroke-linecap="round"/><path fill-rule="evenodd" clip-rule="evenodd" d="M13.743 10.227a6.667 6.667 0 016.59 6.666v5.556A1.219 1.219 0 0119 23.659v-1.994A6.667 6.667 0 0012.333 15h-4a2.667 2.667 0 01-2.666-2.667V7.672a2.56 2.56 0 002.56 2.555h5.516z" fill="#95683D"/><path d="M33 20.333c-.194-.389-.718-.667-1.333-.667-.616 0-1.14.278-1.334.667m-2.666 0c-.194-.389-.718-.667-1.334-.667-.615 0-1.139.278-1.333.667h2.667z" stroke="#C4814F" stroke-width="1.333" stroke-linecap="round"/><path d="M20.333 20.666a1 1 0 10-2 0v2a1 1 0 102 0v-2z" fill="#FFBB86"/></svg>